<?xml version="1.0" standalone="no"?>
<!DOCTYPE svg PUBLIC "-//W3C//DTD SVG 20010904//EN"
 "http://www.w3.org/TR/2001/REC-SVG-20010904/DTD/svg10.dtd">
<svg version="1.0" xmlns="http://www.w3.org/2000/svg"
 width="500.000000pt" height="500.000000pt" viewBox="0 0 500.000000 500.000000"
 preserveAspectRatio="xMidYMid meet">

<g transform="translate(0.000000,500.000000) scale(0.100000,-0.100000)"
fill="#ffffff" stroke="none">
<path d="M3020 3943 c-55 -9 -97 -27 -147 -64 -71 -53 -96 -117 -97 -252 -1
-93 -2 -98 -21 -92 -11 3 -54 12 -95 20 -99 20 -129 31 -157 57 -29 27 -31 6
-3 -40 18 -29 35 -40 105 -69 14 -5 -1 -9 -48 -11 -62 -3 -76 1 -160 39 -103
48 -178 60 -251 39 -86 -24 -156 -111 -156 -195 l0 -38 23 20 c66 61 106 58
192 -12 36 -30 71 -55 76 -55 5 0 9 -5 9 -11 0 -8 -15 -10 -45 -7 -25 3 -45 2
-45 -2 0 -24 93 -73 169 -89 117 -25 261 29 360 135 l60 64 35 -24 34 -23 -18
-28 c-10 -15 -35 -35 -56 -45 -22 -9 -49 -28 -60 -41 -22 -25 -105 -152 -117
-179 -3 -8 -37 -64 -76 -125 -38 -60 -100 -162 -137 -225 -64 -108 -68 -119
-72 -187 -4 -64 -1 -78 22 -117 34 -58 78 -91 152 -116 52 -17 323 -67 459
-85 90 -11 88 -9 56 -73 -39 -79 -58 -142 -71 -242 -56 -441 -70 -544 -74
-548 -6 -5 -114 27 -150 45 -54 28 -113 92 -142 156 -25 53 -29 74 -29 147 0
73 4 93 29 144 46 94 88 133 203 188 55 27 104 56 107 64 10 26 7 51 -8 63 -8
7 -92 24 -188 37 -190 28 -254 46 -321 93 l-46 31 -138 0 c-95 0 -143 -4 -151
-12 -7 -7 -12 -41 -12 -82 l0 -71 -89 -31 -89 -31 -31 51 c-17 29 -31 55 -31
59 0 4 31 7 69 7 53 0 74 4 92 19 l24 19 0 321 c0 311 -1 321 -21 341 -20 20
-30 21 -330 21 l-309 0 -22 -26 c-23 -26 -23 -29 -23 -336 l0 -310 25 -24 c24
-25 26 -25 203 -25 l179 0 46 -74 c26 -40 47 -76 47 -79 0 -3 -30 -24 -67 -48
-38 -23 -120 -92 -183 -153 -64 -61 -138 -124 -165 -141 -44 -26 -53 -37 -70
-88 l-20 -59 29 -24 28 -25 -22 -52 c-12 -29 -24 -58 -27 -65 -4 -10 85 -12
468 -10 l474 3 57 28 c132 65 191 215 142 360 -36 106 -166 188 -309 195 -118
6 -283 -36 -395 -101 -19 -11 -51 -29 -70 -39 l-35 -20 40 37 c44 40 132 103
181 128 48 25 196 57 261 57 81 0 192 -31 253 -70 62 -40 125 -126 147 -199
46 -159 -46 -346 -202 -411 -60 -25 -61 -25 -439 -28 l-378 -3 4 -82 c7 -138
76 -250 188 -307 136 -69 276 -54 412 41 31 23 94 115 103 152 l7 27 147 0
c163 0 214 10 237 45 l16 24 371 3 c366 3 373 3 424 27 81 36 206 173 263 286
52 103 144 208 212 242 98 49 247 51 353 4 41 -18 170 -119 162 -127 -2 -3
-31 11 -63 30 -87 50 -172 76 -252 76 -171 0 -269 -75 -376 -287 -29 -58 -60
-103 -90 -131 -25 -23 -44 -42 -43 -42 2 0 26 7 53 15 55 16 86 45 156 145 53
76 101 116 178 151 48 21 70 24 170 24 l115 0 105 -49 c134 -62 187 -82 195
-74 15 15 -61 136 -124 198 -79 78 -168 125 -281 148 -76 16 -80 18 -80 43 0
15 -30 85 -67 155 -37 71 -116 227 -175 347 -104 212 -107 218 -80 213 88 -17
129 -17 145 -2 34 34 37 230 4 263 -16 16 -22 15 -99 -16 -46 -19 -117 -53
-158 -77 -41 -23 -95 -48 -120 -54 -43 -12 -50 -10 -145 30 -55 23 -126 51
-157 63 -63 24 -75 45 -69 117 1 24 -9 59 -33 109 -45 95 -53 144 -31 199 26
64 54 82 120 75 49 -5 56 -3 79 22 14 15 33 47 42 71 9 24 22 44 28 44 25 0
35 22 21 44 -7 11 -17 38 -20 59 l-7 37 73 1 c113 0 153 10 157 36 3 23 -14
31 -150 64 -44 10 -48 14 -54 48 -22 117 -115 201 -234 213 -25 3 -56 3 -70 1z
m190 -334 c48 -10 50 -12 50 -43 0 -18 5 -48 11 -66 9 -26 9 -34 -2 -41 -7 -4
-25 -32 -39 -61 -22 -47 -29 -53 -58 -56 -19 -2 -46 1 -62 6 -21 8 -33 7 -48
-4 -26 -18 -78 -109 -87 -152 l-7 -34 -18 29 c-10 16 -31 40 -47 54 l-29 24
42 62 c57 83 63 114 30 154 -40 47 -30 83 20 77 22 -2 34 -13 49 -40 11 -21
22 -38 25 -38 3 1 25 32 50 70 25 38 50 70 57 70 7 0 35 -5 63 -11z m-204
-641 c9 -29 26 -77 37 -107 l19 -53 122 -58 c66 -31 147 -67 180 -79 56 -21
61 -21 101 -5 54 20 86 15 102 -15 26 -54 -38 -93 -116 -72 -25 7 -84 21 -131
31 -102 21 -238 73 -299 115 -35 23 -55 49 -92 120 -69 131 -69 132 -17 154
67 30 74 28 94 -31z m-1282 -234 c9 -8 16 -20 16 -26 0 -6 -23 -53 -51 -104
-68 -127 -92 -139 -159 -78 -22 20 -40 40 -40 45 0 5 18 9 39 9 25 0 41 5 44
15 5 11 -8 15 -65 17 -60 3 -73 6 -86 26 l-14 22 100 0 c80 0 101 3 106 15 4
12 -7 15 -67 16 -40 0 -92 3 -117 5 -42 5 -80 26 -80 46 0 4 81 8 179 8 150 0
182 -3 195 -16z m1209 -14 c64 -68 205 -127 372 -155 50 -9 107 -22 128 -30
20 -8 53 -15 72 -15 40 0 34 19 75 -215 48 -278 55 -352 41 -449 -30 -218
-156 -439 -285 -500 -66 -31 -86 -33 -86 -6 0 13 -10 25 -27 32 -64 25 -131
59 -175 87 l-46 30 33 88 c18 48 63 162 100 253 86 212 125 326 125 366 0 17
-9 43 -21 58 -27 34 -154 98 -350 176 -208 82 -201 79 -197 88 2 4 13 32 26
62 20 46 35 64 95 107 40 29 77 53 82 53 6 0 23 -13 38 -30z m-833 -959 c0 -4
-26 -11 -58 -14 -152 -16 -370 -126 -506 -256 -63 -60 -63 -57 -5 30 75 111
196 203 310 233 58 16 259 21 259 7z m-445 -558 c16 -70 99 -143 161 -143 77
0 148 50 167 118 11 35 19 48 36 50 50 8 29 -83 -37 -155 -73 -79 -188 -90
-285 -27 -48 32 -97 107 -97 151 0 28 4 33 24 33 18 0 26 -7 31 -27z m243 21
c28 -6 28 -16 -4 -53 -20 -24 -34 -31 -63 -31 -20 0 -47 7 -59 16 -26 18 -45
51 -37 64 6 9 118 12 163 4z"/>
<path d="M3150 3551 c0 -6 10 -17 22 -26 21 -14 24 -14 35 2 20 26 16 33 -22
33 -19 0 -35 -4 -35 -9z"/>
<path d="M968 2700 c-22 -18 -22 -20 -8 -47 15 -26 20 -28 93 -31 86 -3 117 8
117 42 0 35 -17 43 -102 49 -66 6 -79 4 -100 -13z"/>
<path d="M828 2509 c-25 -14 -24 -65 1 -79 26 -13 296 -13 322 0 12 7 19 21
19 40 0 19 -7 33 -19 40 -25 13 -300 13 -323 -1z"/>
<path d="M968 2309 c-20 -11 -23 -45 -8 -69 15 -23 171 -28 193 -5 21 21 22
49 1 69 -18 19 -157 22 -186 5z"/>
<path d="M852 2068 c-16 -16 -15 -53 2 -67 9 -8 105 -11 331 -9 307 3 318 4
331 23 12 18 11 24 -2 43 -15 22 -17 22 -333 22 -233 0 -320 -3 -329 -12z"/>
<path d="M612 1868 c-15 -15 -15 -51 0 -66 9 -9 101 -12 354 -12 298 0 345 2
358 16 21 20 20 37 -2 57 -17 15 -56 17 -358 17 -251 0 -343 -3 -352 -12z"/>
<path d="M3953 1539 c-65 -25 -138 -90 -180 -161 -148 -245 75 -554 366 -507
122 19 220 94 274 207 28 58 32 77 32 147 -1 59 -6 92 -22 127 -30 67 -105
142 -176 178 -54 27 -69 30 -151 29 -66 0 -105 -6 -143 -20z m222 -123 c87
-41 125 -101 125 -198 0 -101 -67 -183 -170 -208 -40 -10 -58 -9 -102 4 -223
65 -222 349 2 417 46 14 95 9 145 -15z"/>
<path d="M4000 1358 c-115 -59 -106 -219 15 -278 74 -36 152 -15 206 54 31 40
37 119 11 166 -23 43 -91 80 -147 80 -23 0 -60 -10 -85 -22z m144 -74 c78 -78
-30 -192 -118 -123 -20 16 -26 29 -26 60 0 81 87 119 144 63z"/>
<path d="M2259 890 c-75 -4 -151 -11 -170 -15 -33 -8 -34 -8 -9 -17 97 -36
1498 -37 1689 -2 133 25 -262 44 -879 42 -272 0 -556 -4 -631 -8z"/>
</g>
</svg>
